<svg width="498" height="56" viewBox="0 0 498 56" fill="none" xmlns="http://www.w3.org/2000/svg">
<path d="M11.12 38.7101C11.31 38.7101 11.47 38.5501 11.47 38.3601V37.4201C11.47 37.2301 11.31 37.0701 11.12 37.0701C10.93 37.0701 10.77 37.2301 10.77 37.4201V38.3601C10.77 38.5501 10.93 38.7101 11.12 38.7101Z" fill="#F0633C"/>
<path d="M11.1201 38.8301C10.8601 38.8301 10.6401 38.6201 10.6401 38.3501V37.4101C10.6401 37.1501 10.8501 36.9301 11.1201 36.9301C11.3901 36.9301 11.6001 37.1401 11.6001 37.4101V38.3501C11.6001 38.6101 11.3901 38.8301 11.1201 38.8301ZM11.1201 37.1801C10.9901 37.1801 10.8901 37.2801 10.8901 37.4101V38.3501C10.8901 38.4801 10.9901 38.5801 11.1201 38.5801C11.2501 38.5801 11.3501 38.4801 11.3501 38.3501V37.4101C11.3501 37.2801 11.2501 37.1801 11.1201 37.1801Z" fill="#F0633C"/>
<path d="M11.12 39.4C10.93 39.4 10.77 39.56 10.77 39.75V40.69C10.77 40.88 10.93 41.04 11.12 41.04C11.31 41.04 11.47 40.88 11.47 40.69V39.75C11.47 39.56 11.31 39.4 11.12 39.4Z" fill="#F0633C"/>
<path d="M11.1201 41.18C10.8601 41.18 10.6401 40.97 10.6401 40.7V39.76C10.6401 39.5 10.8501 39.28 11.1201 39.28C11.3901 39.28 11.6001 39.49 11.6001 39.76V40.7C11.6001 40.96 11.3901 41.18 11.1201 41.18ZM11.1201 39.53C10.9901 39.53 10.8901 39.63 10.8901 39.76V40.7C10.8901 40.83 10.9901 40.93 11.1201 40.93C11.2501 40.93 11.3501 40.83 11.3501 40.7V39.76C11.3501 39.63 11.2501 39.53 11.1201 39.53Z" fill="#F0633C"/>
<path d="M12.77 38.7H11.83C11.64 38.7 11.48 38.8599 11.48 39.0499C11.48 39.2399 11.64 39.4 11.83 39.4H12.77C12.96 39.4 13.12 39.2399 13.12 39.0499C13.12 38.8599 12.96 38.7 12.77 38.7Z" fill="#F0633C"/>
<path d="M12.7701 39.5299H11.8301C11.5701 39.5299 11.3501 39.3199 11.3501 39.0499C11.3501 38.7799 11.5601 38.5699 11.8301 38.5699H12.7701C13.0301 38.5699 13.2501 38.7799 13.2501 39.0499C13.2501 39.3199 13.0401 39.5299 12.7701 39.5299ZM11.8301 38.8199C11.7001 38.8199 11.6001 38.9199 11.6001 39.0499C11.6001 39.1799 11.7001 39.2799 11.8301 39.2799H12.7701C12.9001 39.2799 13.0001 39.1799 13.0001 39.0499C13.0001 38.9199 12.9001 38.8199 12.7701 38.8199H11.8301Z" fill="#F0633C"/>
<path d="M10.4199 38.7H9.47988C9.28988 38.7 9.12988 38.8599 9.12988 39.0499C9.12988 39.2399 9.28988 39.4 9.47988 39.4H10.4199C10.6099 39.4 10.7699 39.2399 10.7699 39.0499C10.7699 38.8599 10.6099 38.7 10.4199 38.7Z" fill="#F0633C"/>
<path d="M10.42 39.5299H9.48C9.22 39.5299 9 39.3199 9 39.0499C9 38.7799 9.21 38.5699 9.48 38.5699H10.42C10.68 38.5699 10.9 38.7799 10.9 39.0499C10.9 39.3199 10.69 39.5299 10.42 39.5299ZM9.48 38.8199C9.35 38.8199 9.25 38.9199 9.25 39.0499C9.25 39.1799 9.35 39.2799 9.48 39.2799H10.42C10.55 39.2799 10.65 39.1799 10.65 39.0499C10.65 38.9199 10.55 38.8199 10.42 38.8199H9.48Z" fill="#F0633C"/>
<path d="M46.08 14.81C46.27 14.81 46.43 14.65 46.43 14.46V13.52C46.43 13.33 46.27 13.17 46.08 13.17C45.89 13.17 45.73 13.33 45.73 13.52V14.46C45.73 14.65 45.89 14.81 46.08 14.81Z" fill="#F0633C"/>
<path d="M46.0801 14.93C45.8201 14.93 45.6001 14.72 45.6001 14.45V13.51C45.6001 13.25 45.8101 13.03 46.0801 13.03C46.3501 13.03 46.5601 13.24 46.5601 13.51V14.45C46.5601 14.71 46.3501 14.93 46.0801 14.93ZM46.0801 13.28C45.9501 13.28 45.8501 13.38 45.8501 13.51V14.45C45.8501 14.58 45.9501 14.68 46.0801 14.68C46.2101 14.68 46.3101 14.58 46.3101 14.45V13.51C46.3101 13.38 46.2101 13.28 46.0801 13.28Z" fill="#F0633C"/>
<path d="M46.08 15.5C45.89 15.5 45.73 15.66 45.73 15.85V16.79C45.73 16.98 45.89 17.14 46.08 17.14C46.27 17.14 46.43 16.98 46.43 16.79V15.85C46.43 15.66 46.27 15.5 46.08 15.5Z" fill="#F0633C"/>
<path d="M46.0801 17.27C45.8201 17.27 45.6001 17.06 45.6001 16.79V15.85C45.6001 15.59 45.8101 15.37 46.0801 15.37C46.3501 15.37 46.5601 15.58 46.5601 15.85V16.79C46.5601 17.05 46.3501 17.27 46.0801 17.27ZM46.0801 15.62C45.9501 15.62 45.8501 15.72 45.8501 15.85V16.79C45.8501 16.92 45.9501 17.02 46.0801 17.02C46.2101 17.02 46.3101 16.92 46.3101 16.79V15.85C46.3101 15.72 46.2101 15.62 46.0801 15.62Z" fill="#F0633C"/>
<path d="M47.7197 14.8H46.7797C46.5897 14.8 46.4297 14.96 46.4297 15.15C46.4297 15.34 46.5897 15.5 46.7797 15.5H47.7197C47.9097 15.5 48.0697 15.34 48.0697 15.15C48.0697 14.96 47.9097 14.8 47.7197 14.8Z" fill="#F0633C"/>
<path d="M47.7198 15.63H46.7798C46.5198 15.63 46.2998 15.42 46.2998 15.15C46.2998 14.88 46.5098 14.67 46.7798 14.67H47.7198C47.9798 14.67 48.1998 14.88 48.1998 15.15C48.1998 15.42 47.9898 15.63 47.7198 15.63ZM46.7798 14.92C46.6498 14.92 46.5498 15.02 46.5498 15.15C46.5498 15.28 46.6498 15.38 46.7798 15.38H47.7198C47.8498 15.38 47.9498 15.28 47.9498 15.15C47.9498 15.02 47.8498 14.92 47.7198 14.92H46.7798Z" fill="#F0633C"/>
<path d="M45.3798 14.8H44.4398C44.2498 14.8 44.0898 14.96 44.0898 15.15C44.0898 15.34 44.2498 15.5 44.4398 15.5H45.3798C45.5698 15.5 45.7298 15.34 45.7298 15.15C45.7298 14.96 45.5698 14.8 45.3798 14.8Z" fill="#F0633C"/>
<path d="M45.38 15.63H44.44C44.18 15.63 43.96 15.42 43.96 15.15C43.96 14.88 44.17 14.67 44.44 14.67H45.38C45.64 14.67 45.86 14.88 45.86 15.15C45.86 15.42 45.65 15.63 45.38 15.63ZM44.44 14.92C44.31 14.92 44.21 15.02 44.21 15.15C44.21 15.28 44.31 15.38 44.44 15.38H45.38C45.51 15.38 45.61 15.28 45.61 15.15C45.61 15.02 45.51 14.92 45.38 14.92H44.44Z" fill="#F0633C"/>
<path d="M30.5103 41.9999C30.7003 41.9999 30.8603 41.8399 30.8603 41.6499C30.8603 41.4599 30.7003 41.2999 30.5103 41.2999H18.7803L18.6503 40.9599V8.86994H41.3403V26.4099C41.3403 26.5999 41.5003 26.7599 41.6903 26.7599C41.8803 26.7599 42.0403 26.5999 42.0403 26.4099V8.50994C42.0403 8.31994 41.8803 8.15994 41.6903 8.15994H31.4903L30.5503 5.62994C30.4803 5.44994 30.2803 5.34994 30.1003 5.41994L22.6703 8.15994H18.3003C18.1103 8.15994 17.9503 8.31994 17.9503 8.50994V9.89994L8.15033 13.5099C8.06033 13.5399 7.99033 13.6099 7.95033 13.6899C7.91033 13.7699 7.91033 13.8699 7.94033 13.9599L17.9403 41.0699V41.6399C17.9403 41.8299 18.0903 41.9799 18.2803 41.9899L19.4103 45.0399C19.4603 45.1799 19.6003 45.2699 19.7403 45.2699C19.7803 45.2699 19.8203 45.2699 19.8603 45.2499L28.7003 41.9899H30.5003L30.5103 41.9999ZM30.0203 6.20994L30.7403 8.16994H24.7203L30.0203 6.20994ZM17.9603 10.6599V39.0399L8.73033 14.0499L17.9503 10.6499L17.9603 10.6599ZM19.9703 44.4799L19.0603 41.9999H26.6903L19.9803 44.4799H19.9703Z" fill="#F0633C"/>
<path d="M19.7501 45.4C19.5501 45.4 19.3701 45.28 19.3001 45.09L18.2001 42.11C17.9901 42.06 17.8301 41.87 17.8301 41.65V41.1L7.83012 14.01C7.79012 13.89 7.79012 13.76 7.84012 13.64C7.89012 13.52 7.99012 13.43 8.11012 13.39L17.8201 9.80997V8.50997C17.8201 8.24997 18.0301 8.02997 18.3001 8.02997H22.6501L30.0601 5.29997C30.1801 5.25997 30.3101 5.25997 30.4201 5.30997C30.5401 5.35997 30.6201 5.45997 30.6701 5.57997L31.5801 8.02997H41.7001C41.9601 8.02997 42.1801 8.23997 42.1801 8.50997V26.41C42.1801 26.67 41.9701 26.89 41.7001 26.89C41.4301 26.89 41.2201 26.68 41.2201 26.41V8.98997H18.7801V40.92L18.8701 41.16H30.5101C30.7701 41.16 30.9901 41.37 30.9901 41.64C30.9901 41.91 30.7801 42.12 30.5101 42.12H28.7401L19.9301 45.37C19.8701 45.39 19.8201 45.4 19.7601 45.4H19.7501ZM18.3001 8.27997C18.1701 8.27997 18.0701 8.37997 18.0701 8.50997V9.97997L17.9901 10.01L8.19012 13.62C8.13012 13.64 8.09012 13.68 8.06012 13.74C8.03012 13.8 8.03012 13.86 8.06012 13.92L18.0701 41.07V41.64C18.0701 41.76 18.1701 41.86 18.2901 41.86H18.3701L19.5301 45C19.5701 45.11 19.7001 45.18 19.8301 45.13L28.7101 41.86H30.5501C30.6601 41.84 30.7401 41.75 30.7401 41.64C30.7401 41.51 30.6401 41.41 30.5101 41.41H18.7001L18.5301 40.94V8.73997H41.4701V26.41C41.4701 26.54 41.5701 26.64 41.7001 26.64C41.8301 26.64 41.9301 26.54 41.9301 26.41V8.50997C41.9301 8.37997 41.8301 8.27997 41.7001 8.27997H31.4101L30.4401 5.66997C30.4201 5.60997 30.3801 5.56997 30.3201 5.53997C30.2601 5.50997 30.2001 5.50997 30.1501 5.53997L22.6801 8.28997H18.3101L18.3001 8.27997ZM19.8801 44.63L18.8601 41.87H27.3701L19.8801 44.63ZM19.2201 42.12L20.0301 44.31L25.9701 42.12H19.2201ZM18.0701 39.73L8.57012 13.98L18.0801 10.48V39.74L18.0701 39.73ZM8.89012 14.13L17.8201 38.34V10.84L8.89012 14.13ZM30.9201 8.28997H24.0201L30.0901 6.04997L30.9201 8.28997ZM25.4201 8.03997H30.5701L29.9501 6.36997L25.4201 8.03997Z" fill="#F0633C"/>
<path d="M40.54 27.6999C38.79 26.9199 36.84 26.8599 35.05 27.5399C33.26 28.2199 31.84 29.5599 31.06 31.3099C30.28 33.0599 30.22 35.0099 30.9 36.7999C31.54 38.4799 32.76 39.8299 34.36 40.6399L33.86 41.7599L32.66 41.2199C32.48 41.1399 32.27 41.2199 32.19 41.3999L29.35 47.7499C28.89 48.7699 29.35 49.9699 30.37 50.4299C30.64 50.5499 30.92 50.6099 31.2 50.6099C31.97 50.6099 32.71 50.1699 33.05 49.4099L35.89 43.0599C35.93 42.9799 35.93 42.8799 35.89 42.7899C35.85 42.6999 35.79 42.6299 35.7 42.5899L34.5 42.0499L35 40.9299C35.84 41.2599 36.72 41.4299 37.6 41.4299C38.48 41.4299 39.33 41.2699 40.16 40.9599C41.95 40.2799 43.37 38.9399 44.15 37.1899C44.93 35.4399 44.99 33.4899 44.31 31.6999C43.63 29.9099 42.29 28.4899 40.54 27.7099V27.6999ZM32.39 49.1099C32.25 49.4299 31.98 49.6799 31.66 49.7999C31.34 49.9199 30.97 49.9199 30.65 49.7699C30.33 49.6199 30.08 49.3599 29.96 49.0399C29.84 48.7199 29.84 48.3499 29.99 48.0299L32.69 41.9999L35.1 43.0799L32.4 49.1099H32.39ZM43.51 36.8999C42.8 38.4799 41.52 39.6899 39.91 40.2999C38.29 40.9199 36.53 40.8699 34.96 40.1599C33.39 39.4499 32.17 38.1699 31.56 36.5599C30.94 34.9399 30.99 33.1799 31.7 31.6099C32.41 30.0399 33.69 28.8199 35.3 28.2099C36.05 27.9199 36.83 27.7799 37.61 27.7799C38.51 27.7799 39.41 27.9699 40.25 28.3499C41.83 29.0599 43.04 30.3399 43.65 31.9499C44.27 33.5699 44.22 35.3299 43.51 36.8999Z" fill="#F0633C"/>
<path d="M31.1898 50.73C30.8898 50.73 30.5898 50.67 30.3098 50.54C29.7898 50.31 29.3798 49.88 29.1798 49.34C28.9798 48.8 28.9898 48.22 29.2298 47.69L32.0698 41.34C32.1198 41.22 32.2198 41.13 32.3398 41.09C32.4598 41.05 32.5898 41.05 32.7098 41.1L33.7998 41.59L34.1998 40.7C32.6298 39.87 31.4198 38.51 30.7898 36.85C30.0898 35.03 30.1498 33.04 30.9498 31.26C31.7498 29.48 33.1898 28.11 35.0098 27.42C36.8298 26.72 38.8198 26.78 40.5998 27.58C42.3798 28.38 43.7398 29.82 44.4398 31.64C45.1398 33.46 45.0798 35.45 44.2798 37.23C43.4798 39.02 42.0398 40.38 40.2198 41.07C38.5698 41.69 36.7898 41.72 35.0798 41.08L34.6798 41.97L35.7698 42.46C35.8898 42.51 35.9698 42.6 36.0198 42.73C36.0698 42.85 36.0598 42.98 36.0198 43.1L33.1798 49.45C32.8398 50.22 32.0598 50.72 31.2198 50.72L31.1898 50.73ZM32.5098 41.32C32.5098 41.32 32.4598 41.32 32.4298 41.33C32.3698 41.35 32.3298 41.39 32.2998 41.45L29.4598 47.8C29.2498 48.26 29.2398 48.78 29.4198 49.25C29.5998 49.73 29.9598 50.1 30.4198 50.31C30.6698 50.42 30.9298 50.48 31.1998 50.48C31.9498 50.48 32.6298 50.04 32.9398 49.36L35.7798 43.01C35.8098 42.95 35.8098 42.89 35.7798 42.84C35.7598 42.78 35.7098 42.73 35.6598 42.71L34.3398 42.12L34.9398 40.78L35.0498 40.82C36.7398 41.48 38.4898 41.47 40.1198 40.85C41.8798 40.18 43.2698 38.86 44.0398 37.14C44.8098 35.42 44.8598 33.5 44.1898 31.74C43.5198 29.98 42.1998 28.59 40.4798 27.82C38.7598 27.05 36.8398 27 35.0798 27.67C33.3198 28.34 31.9298 29.66 31.1598 31.38C30.3898 33.1 30.3398 35.02 31.0098 36.78C31.6298 38.41 32.8398 39.75 34.4098 40.55L34.5198 40.6L33.9198 41.94L32.5998 41.35C32.5998 41.35 32.5398 41.33 32.5098 41.33V41.32ZM31.1898 50.02C30.9898 50.02 30.7898 49.98 30.5998 49.89C30.2498 49.73 29.9798 49.44 29.8398 49.09C29.6998 48.73 29.7098 48.33 29.8698 47.98L32.6198 41.84L35.2598 43.02L35.2098 43.13L32.5098 49.16C32.3498 49.51 32.0698 49.78 31.7098 49.92C31.5398 49.98 31.3698 50.01 31.1898 50.01V50.02ZM32.7498 42.17L30.0998 48.08C29.9698 48.37 29.9598 48.69 30.0698 49C30.1798 49.3 30.3998 49.53 30.6998 49.66C30.9898 49.79 31.3098 49.8 31.6198 49.68C31.9198 49.57 32.1498 49.35 32.2798 49.05L34.9298 43.14L32.7498 42.16V42.17ZM37.5998 40.86C36.6798 40.86 35.7698 40.67 34.8998 40.28C33.2898 39.56 32.0598 38.26 31.4298 36.61C30.7998 34.97 30.8498 33.17 31.5698 31.56C32.2898 29.95 33.5898 28.72 35.2398 28.09C36.8698 27.47 38.6798 27.52 40.2898 28.23C41.8998 28.95 43.1298 30.25 43.7598 31.9C44.3898 33.55 44.3398 35.34 43.6198 36.95C42.8998 38.56 41.5998 39.79 39.9498 40.42C39.1898 40.71 38.3898 40.86 37.5998 40.86ZM37.5998 27.9C36.8298 27.9 36.0598 28.04 35.3298 28.32C33.7398 28.93 32.4898 30.11 31.7998 31.66C31.1098 33.21 31.0598 34.94 31.6598 36.52C32.2698 38.11 33.4498 39.36 34.9998 40.05C36.5498 40.74 38.2798 40.79 39.8598 40.19C41.4498 39.58 42.6998 38.4 43.3898 36.85C44.0898 35.3 44.1298 33.58 43.5298 31.99C42.9198 30.4 41.7398 29.15 40.1898 28.46C39.3598 28.09 38.4898 27.9 37.5998 27.9Z" fill="#F0633C"/>
<path d="M39.7999 29.3599C38.4899 28.7699 37.0399 28.7299 35.6999 29.2399C34.3599 29.7499 33.2999 30.7499 32.7199 32.0599C31.5099 34.7599 32.7199 37.9299 35.4199 39.1399C36.1299 39.4599 36.8699 39.6099 37.5999 39.6099C39.6499 39.6099 41.6099 38.4299 42.4999 36.4399C43.0899 35.1299 43.1299 33.6799 42.6199 32.3399C42.1099 30.9999 41.1099 29.9399 39.8099 29.3599H39.7999ZM41.8599 36.1499C40.8099 38.4899 38.0499 39.5399 35.7099 38.4899C33.3699 37.4399 32.3199 34.6799 33.3699 32.3399C34.1399 30.6099 35.8499 29.5899 37.6199 29.5899C38.2599 29.5899 38.8999 29.7199 39.5199 29.9999C41.8599 31.0499 42.9099 33.8099 41.8599 36.1499Z" fill="#F0633C"/>
<path d="M37.6001 39.73C36.8301 39.73 36.0801 39.57 35.3701 39.25C32.6101 38.01 31.3701 34.76 32.6101 32C33.2101 30.66 34.2901 29.64 35.6601 29.12C37.0301 28.6 38.5201 28.64 39.8601 29.24C41.2001 29.84 42.2201 30.92 42.7401 32.29C43.2601 33.66 43.2201 35.15 42.6201 36.49C41.7401 38.46 39.7701 39.73 37.6101 39.73H37.6001ZM37.6101 29.01C36.9801 29.01 36.3501 29.12 35.7401 29.36C34.4301 29.86 33.4001 30.83 32.8301 32.11C31.6501 34.74 32.8301 37.85 35.4701 39.03C36.1501 39.33 36.8701 39.49 37.6001 39.49C39.6701 39.49 41.5401 38.28 42.3801 36.4C42.9501 35.12 42.9901 33.7 42.4901 32.4C41.9901 31.09 41.0201 30.06 39.7401 29.49C39.0601 29.18 38.3301 29.03 37.6001 29.03L37.6101 29.01ZM37.6001 39.02C36.9501 39.02 36.2901 38.89 35.6601 38.6C34.5001 38.08 33.6101 37.13 33.1501 35.94C32.6901 34.75 32.7301 33.45 33.2501 32.29C34.0201 30.57 35.7301 29.47 37.6201 29.47C38.2901 29.47 38.9501 29.61 39.5701 29.89C40.7301 30.41 41.6201 31.36 42.0801 32.55C42.5401 33.74 42.5001 35.04 41.9801 36.2C41.1901 37.97 39.4401 39.02 37.6101 39.02H37.6001ZM37.6101 29.72C35.8301 29.72 34.2001 30.77 33.4701 32.4C32.4501 34.68 33.4701 37.36 35.7501 38.38C38.0301 39.4 40.7101 38.38 41.7301 36.1C42.2201 35 42.2601 33.77 41.8301 32.64C41.4001 31.51 40.5501 30.61 39.4501 30.12C38.8601 29.86 38.2401 29.72 37.6001 29.72H37.6101Z" fill="#F0633C"/>
<path d="M65.7784 33.662C65.1184 33.662 64.4944 33.602 63.9064 33.482C63.3304 33.362 62.7964 33.194 62.3044 32.978C61.8244 32.75 61.3864 32.474 60.9904 32.15L61.5124 30.962C61.9204 31.262 62.3344 31.52 62.7544 31.736C63.1864 31.94 63.6484 32.096 64.1404 32.204C64.6444 32.3 65.1904 32.348 65.7784 32.348C66.8584 32.348 67.6564 32.15 68.1724 31.754C68.7004 31.346 68.9644 30.812 68.9644 30.152C68.9644 29.804 68.8804 29.504 68.7124 29.252C68.5564 29 68.2924 28.784 67.9204 28.604C67.5604 28.424 67.0864 28.274 66.4984 28.154L64.6264 27.776C63.4984 27.536 62.6524 27.146 62.0884 26.606C61.5364 26.054 61.2604 25.322 61.2604 24.41C61.2604 23.654 61.4524 22.994 61.8364 22.43C62.2324 21.866 62.7784 21.428 63.4744 21.116C64.1824 20.804 64.9864 20.648 65.8864 20.648C66.4624 20.648 67.0084 20.708 67.5244 20.828C68.0404 20.948 68.5144 21.128 68.9464 21.368C69.3904 21.596 69.7804 21.878 70.1164 22.214L69.5944 23.366C69.0544 22.874 68.4844 22.52 67.8844 22.304C67.2844 22.076 66.6124 21.962 65.8684 21.962C65.2324 21.962 64.6804 22.058 64.2124 22.25C63.7564 22.442 63.3964 22.724 63.1324 23.096C62.8804 23.456 62.7544 23.876 62.7544 24.356C62.7544 24.932 62.9284 25.388 63.2764 25.724C63.6364 26.06 64.2184 26.306 65.0224 26.462L66.8944 26.858C68.1064 27.11 69.0004 27.494 69.5764 28.01C70.1644 28.514 70.4584 29.204 70.4584 30.08C70.4584 30.776 70.2664 31.4 69.8824 31.952C69.5104 32.492 68.9704 32.912 68.2624 33.212C67.5664 33.512 66.7384 33.662 65.7784 33.662ZM75.6466 33.662C74.9386 33.662 74.3506 33.536 73.8826 33.284C73.4266 33.02 73.0786 32.63 72.8386 32.114C72.6106 31.598 72.4966 30.956 72.4966 30.188V24.752H73.9546V30.17C73.9546 30.686 74.0206 31.118 74.1526 31.466C74.2966 31.802 74.5186 32.054 74.8186 32.222C75.1186 32.378 75.4906 32.456 75.9346 32.456C76.4386 32.456 76.8766 32.342 77.2486 32.114C77.6206 31.886 77.9146 31.568 78.1306 31.16C78.3466 30.752 78.4546 30.272 78.4546 29.72V24.752H79.9126V33.5H78.4906V31.484H78.7246C78.4846 32.192 78.0886 32.732 77.5366 33.104C76.9966 33.476 76.3666 33.662 75.6466 33.662ZM85.3945 33.662C84.7945 33.662 84.2545 33.548 83.7745 33.32C83.3065 33.08 82.9345 32.756 82.6585 32.348C82.3825 31.94 82.2445 31.484 82.2445 30.98C82.2445 30.332 82.4065 29.822 82.7305 29.45C83.0665 29.078 83.6125 28.814 84.3685 28.658C85.1365 28.502 86.1805 28.424 87.5005 28.424H88.3105V29.378H87.5185C86.7865 29.378 86.1745 29.402 85.6825 29.45C85.1905 29.498 84.8005 29.582 84.5125 29.702C84.2245 29.822 84.0205 29.978 83.9005 30.17C83.7805 30.362 83.7205 30.602 83.7205 30.89C83.7205 31.382 83.8885 31.784 84.2245 32.096C84.5725 32.408 85.0405 32.564 85.6285 32.564C86.1085 32.564 86.5285 32.45 86.8885 32.222C87.2605 31.994 87.5485 31.682 87.7525 31.286C87.9685 30.89 88.0765 30.434 88.0765 29.918V27.866C88.0765 27.122 87.9265 26.588 87.6265 26.264C87.3265 25.928 86.8345 25.76 86.1505 25.76C85.6225 25.76 85.1125 25.838 84.6205 25.994C84.1285 26.138 83.6245 26.378 83.1085 26.714L82.6045 25.652C82.9165 25.436 83.2705 25.25 83.6665 25.094C84.0625 24.926 84.4765 24.8 84.9085 24.716C85.3405 24.632 85.7545 24.59 86.1505 24.59C86.9065 24.59 87.5305 24.716 88.0225 24.968C88.5145 25.208 88.8805 25.58 89.1205 26.084C89.3605 26.576 89.4805 27.212 89.4805 27.992V33.5H88.1125V31.466H88.2745C88.1785 31.922 87.9925 32.312 87.7165 32.636C87.4525 32.96 87.1225 33.212 86.7265 33.392C86.3305 33.572 85.8865 33.662 85.3945 33.662ZM99.4904 33.662C98.6024 33.662 97.9304 33.398 97.4744 32.87C97.0304 32.342 96.8084 31.586 96.8084 30.602V20.81H98.2664V30.494C98.2664 30.914 98.3204 31.268 98.4284 31.556C98.5484 31.844 98.7224 32.06 98.9504 32.204C99.1784 32.348 99.4604 32.42 99.7964 32.42C99.9404 32.42 100.078 32.414 100.21 32.402C100.354 32.378 100.486 32.348 100.606 32.312L100.57 33.536C100.378 33.572 100.192 33.602 100.012 33.626C99.8444 33.65 99.6704 33.662 99.4904 33.662ZM101.955 22.574V20.936H103.755V22.574H101.955ZM102.135 33.5V24.752H103.593V33.5H102.135ZM109.27 33.662C108.814 33.662 108.37 33.614 107.938 33.518C107.518 33.434 107.122 33.314 106.75 33.158C106.39 32.99 106.078 32.792 105.814 32.564L106.282 31.538C106.57 31.766 106.882 31.958 107.218 32.114C107.554 32.258 107.896 32.366 108.244 32.438C108.592 32.51 108.946 32.546 109.306 32.546C109.99 32.546 110.506 32.42 110.854 32.168C111.202 31.916 111.376 31.574 111.376 31.142C111.376 30.806 111.262 30.542 111.034 30.35C110.806 30.146 110.446 29.99 109.954 29.882L108.316 29.522C107.56 29.366 106.996 29.096 106.624 28.712C106.264 28.328 106.084 27.83 106.084 27.218C106.084 26.678 106.222 26.216 106.498 25.832C106.786 25.436 107.188 25.13 107.704 24.914C108.22 24.698 108.82 24.59 109.504 24.59C109.912 24.59 110.302 24.632 110.674 24.716C111.046 24.8 111.394 24.926 111.718 25.094C112.054 25.25 112.342 25.448 112.582 25.688L112.096 26.714C111.868 26.498 111.61 26.318 111.322 26.174C111.034 26.018 110.734 25.904 110.422 25.832C110.122 25.748 109.816 25.706 109.504 25.706C108.832 25.706 108.322 25.838 107.974 26.102C107.626 26.366 107.452 26.714 107.452 27.146C107.452 27.482 107.56 27.758 107.776 27.974C107.992 28.19 108.328 28.346 108.784 28.442L110.422 28.784C111.202 28.952 111.784 29.222 112.168 29.594C112.564 29.954 112.762 30.446 112.762 31.07C112.762 31.598 112.618 32.06 112.33 32.456C112.042 32.84 111.634 33.14 111.106 33.356C110.59 33.56 109.978 33.662 109.27 33.662ZM118.406 33.662C117.374 33.662 116.6 33.386 116.084 32.834C115.568 32.282 115.31 31.496 115.31 30.476V25.886H113.6V24.752H115.31V22.07H116.768V24.752H119.54V25.886H116.768V30.332C116.768 31.016 116.912 31.538 117.2 31.898C117.488 32.246 117.956 32.42 118.604 32.42C118.796 32.42 118.988 32.396 119.18 32.348C119.372 32.3 119.546 32.252 119.702 32.204L119.954 33.32C119.798 33.404 119.57 33.482 119.27 33.554C118.97 33.626 118.682 33.662 118.406 33.662ZM123.943 33.662C123.343 33.662 122.803 33.548 122.323 33.32C121.855 33.08 121.483 32.756 121.207 32.348C120.931 31.94 120.793 31.484 120.793 30.98C120.793 30.332 120.955 29.822 121.279 29.45C121.615 29.078 122.161 28.814 122.917 28.658C123.685 28.502 124.729 28.424 126.049 28.424H126.859V29.378H126.067C125.335 29.378 124.723 29.402 124.231 29.45C123.739 29.498 123.349 29.582 123.061 29.702C122.773 29.822 122.569 29.978 122.449 30.17C122.329 30.362 122.269 30.602 122.269 30.89C122.269 31.382 122.437 31.784 122.773 32.096C123.121 32.408 123.589 32.564 124.177 32.564C124.657 32.564 125.077 32.45 125.437 32.222C125.809 31.994 126.097 31.682 126.301 31.286C126.517 30.89 126.625 30.434 126.625 29.918V27.866C126.625 27.122 126.475 26.588 126.175 26.264C125.875 25.928 125.383 25.76 124.699 25.76C124.171 25.76 123.661 25.838 123.169 25.994C122.677 26.138 122.173 26.378 121.657 26.714L121.153 25.652C121.465 25.436 121.819 25.25 122.215 25.094C122.611 24.926 123.025 24.8 123.457 24.716C123.889 24.632 124.303 24.59 124.699 24.59C125.455 24.59 126.079 24.716 126.571 24.968C127.063 25.208 127.429 25.58 127.669 26.084C127.909 26.576 128.029 27.212 128.029 27.992V33.5H126.661V31.466H126.823C126.727 31.922 126.541 32.312 126.265 32.636C126.001 32.96 125.671 33.212 125.275 33.392C124.879 33.572 124.435 33.662 123.943 33.662ZM139.299 33.662C138.375 33.662 137.577 33.482 136.905 33.122C136.245 32.75 135.729 32.228 135.357 31.556C134.997 30.884 134.817 30.08 134.817 29.144C134.817 28.232 134.997 27.44 135.357 26.768C135.717 26.084 136.209 25.55 136.833 25.166C137.469 24.782 138.201 24.59 139.029 24.59C139.821 24.59 140.499 24.764 141.063 25.112C141.627 25.46 142.059 25.952 142.359 26.588C142.671 27.224 142.827 27.986 142.827 28.874V29.432H135.933V28.478H141.855L141.567 28.712C141.567 27.752 141.351 27.008 140.919 26.48C140.499 25.94 139.881 25.67 139.065 25.67C138.453 25.67 137.931 25.814 137.499 26.102C137.079 26.378 136.761 26.768 136.545 27.272C136.329 27.764 136.221 28.34 136.221 29V29.108C136.221 29.84 136.335 30.458 136.563 30.962C136.803 31.466 137.157 31.85 137.625 32.114C138.093 32.366 138.651 32.492 139.299 32.492C139.815 32.492 140.313 32.414 140.793 32.258C141.285 32.09 141.747 31.82 142.179 31.448L142.683 32.474C142.287 32.834 141.783 33.122 141.171 33.338C140.559 33.554 139.935 33.662 139.299 33.662ZM147.889 33.662C147.433 33.662 146.989 33.614 146.557 33.518C146.137 33.434 145.741 33.314 145.369 33.158C145.009 32.99 144.697 32.792 144.433 32.564L144.901 31.538C145.189 31.766 145.501 31.958 145.837 32.114C146.173 32.258 146.515 32.366 146.863 32.438C147.211 32.51 147.565 32.546 147.925 32.546C148.609 32.546 149.125 32.42 149.473 32.168C149.821 31.916 149.995 31.574 149.995 31.142C149.995 30.806 149.881 30.542 149.653 30.35C149.425 30.146 149.065 29.99 148.573 29.882L146.935 29.522C146.179 29.366 145.615 29.096 145.243 28.712C144.883 28.328 144.703 27.83 144.703 27.218C144.703 26.678 144.841 26.216 145.117 25.832C145.405 25.436 145.807 25.13 146.323 24.914C146.839 24.698 147.439 24.59 148.123 24.59C148.531 24.59 148.921 24.632 149.293 24.716C149.665 24.8 150.013 24.926 150.337 25.094C150.673 25.25 150.961 25.448 151.201 25.688L150.715 26.714C150.487 26.498 150.229 26.318 149.941 26.174C149.653 26.018 149.353 25.904 149.041 25.832C148.741 25.748 148.435 25.706 148.123 25.706C147.451 25.706 146.941 25.838 146.593 26.102C146.245 26.366 146.071 26.714 146.071 27.146C146.071 27.482 146.179 27.758 146.395 27.974C146.611 28.19 146.947 28.346 147.403 28.442L149.041 28.784C149.821 28.952 150.403 29.222 150.787 29.594C151.183 29.954 151.381 30.446 151.381 31.07C151.381 31.598 151.237 32.06 150.949 32.456C150.661 32.84 150.253 33.14 149.725 33.356C149.209 33.56 148.597 33.662 147.889 33.662ZM157.025 33.662C155.993 33.662 155.219 33.386 154.703 32.834C154.187 32.282 153.929 31.496 153.929 30.476V25.886H152.219V24.752H153.929V22.07H155.387V24.752H158.159V25.886H155.387V30.332C155.387 31.016 155.531 31.538 155.819 31.898C156.107 32.246 156.575 32.42 157.223 32.42C157.415 32.42 157.607 32.396 157.799 32.348C157.991 32.3 158.165 32.252 158.321 32.204L158.573 33.32C158.417 33.404 158.189 33.482 157.889 33.554C157.589 33.626 157.301 33.662 157.025 33.662ZM162.562 33.662C161.962 33.662 161.422 33.548 160.942 33.32C160.474 33.08 160.102 32.756 159.826 32.348C159.55 31.94 159.412 31.484 159.412 30.98C159.412 30.332 159.574 29.822 159.898 29.45C160.234 29.078 160.78 28.814 161.536 28.658C162.304 28.502 163.348 28.424 164.668 28.424H165.478V29.378H164.686C163.954 29.378 163.342 29.402 162.85 29.45C162.358 29.498 161.968 29.582 161.68 29.702C161.392 29.822 161.188 29.978 161.068 30.17C160.948 30.362 160.888 30.602 160.888 30.89C160.888 31.382 161.056 31.784 161.392 32.096C161.74 32.408 162.208 32.564 162.796 32.564C163.276 32.564 163.696 32.45 164.056 32.222C164.428 31.994 164.716 31.682 164.92 31.286C165.136 30.89 165.244 30.434 165.244 29.918V27.866C165.244 27.122 165.094 26.588 164.794 26.264C164.494 25.928 164.002 25.76 163.318 25.76C162.79 25.76 162.28 25.838 161.788 25.994C161.296 26.138 160.792 26.378 160.276 26.714L159.772 25.652C160.084 25.436 160.438 25.25 160.834 25.094C161.23 24.926 161.644 24.8 162.076 24.716C162.508 24.632 162.922 24.59 163.318 24.59C164.074 24.59 164.698 24.716 165.19 24.968C165.682 25.208 166.048 25.58 166.288 26.084C166.528 26.576 166.648 27.212 166.648 27.992V33.5H165.28V31.466H165.442C165.346 31.922 165.16 32.312 164.884 32.636C164.62 32.96 164.29 33.212 163.894 33.392C163.498 33.572 163.054 33.662 162.562 33.662ZM162.814 23.582L164.668 19.946H166.234L163.858 23.582H162.814ZM176.55 33.5L172.788 24.752H174.372L177.504 32.42H177.018L180.204 24.752H181.698L177.918 33.5H176.55ZM185.818 33.662C185.218 33.662 184.678 33.548 184.198 33.32C183.73 33.08 183.358 32.756 183.082 32.348C182.806 31.94 182.668 31.484 182.668 30.98C182.668 30.332 182.83 29.822 183.154 29.45C183.49 29.078 184.036 28.814 184.792 28.658C185.56 28.502 186.604 28.424 187.924 28.424H188.734V29.378H187.942C187.21 29.378 186.598 29.402 186.106 29.45C185.614 29.498 185.224 29.582 184.936 29.702C184.648 29.822 184.444 29.978 184.324 30.17C184.204 30.362 184.144 30.602 184.144 30.89C184.144 31.382 184.312 31.784 184.648 32.096C184.996 32.408 185.464 32.564 186.052 32.564C186.532 32.564 186.952 32.45 187.312 32.222C187.684 31.994 187.972 31.682 188.176 31.286C188.392 30.89 188.5 30.434 188.5 29.918V27.866C188.5 27.122 188.35 26.588 188.05 26.264C187.75 25.928 187.258 25.76 186.574 25.76C186.046 25.76 185.536 25.838 185.044 25.994C184.552 26.138 184.048 26.378 183.532 26.714L183.028 25.652C183.34 25.436 183.694 25.25 184.09 25.094C184.486 24.926 184.9 24.8 185.332 24.716C185.764 24.632 186.178 24.59 186.574 24.59C187.33 24.59 187.954 24.716 188.446 24.968C188.938 25.208 189.304 25.58 189.544 26.084C189.784 26.576 189.904 27.212 189.904 27.992V33.5H188.536V31.466H188.698C188.602 31.922 188.416 32.312 188.14 32.636C187.876 32.96 187.546 33.212 187.15 33.392C186.754 33.572 186.31 33.662 185.818 33.662ZM192.231 33.5V32.528L197.505 25.508V25.886H192.231V24.752H198.855V25.724L193.527 32.78V32.366H199.053V33.5H192.231ZM200.761 22.574V20.936H202.561V22.574H200.761ZM200.941 33.5V24.752H202.399V33.5H200.941ZM207.879 33.662C207.279 33.662 206.739 33.548 206.259 33.32C205.791 33.08 205.419 32.756 205.143 32.348C204.867 31.94 204.729 31.484 204.729 30.98C204.729 30.332 204.891 29.822 205.215 29.45C205.551 29.078 206.097 28.814 206.853 28.658C207.621 28.502 208.665 28.424 209.985 28.424H210.795V29.378H210.003C209.271 29.378 208.659 29.402 208.167 29.45C207.675 29.498 207.285 29.582 206.997 29.702C206.709 29.822 206.505 29.978 206.385 30.17C206.265 30.362 206.205 30.602 206.205 30.89C206.205 31.382 206.373 31.784 206.709 32.096C207.057 32.408 207.525 32.564 208.113 32.564C208.593 32.564 209.013 32.45 209.373 32.222C209.745 31.994 210.033 31.682 210.237 31.286C210.453 30.89 210.561 30.434 210.561 29.918V27.866C210.561 27.122 210.411 26.588 210.111 26.264C209.811 25.928 209.319 25.76 208.635 25.76C208.107 25.76 207.597 25.838 207.105 25.994C206.613 26.138 206.109 26.378 205.593 26.714L205.089 25.652C205.401 25.436 205.755 25.25 206.151 25.094C206.547 24.926 206.961 24.8 207.393 24.716C207.825 24.632 208.239 24.59 208.635 24.59C209.391 24.59 210.015 24.716 210.507 24.968C210.999 25.208 211.365 25.58 211.605 26.084C211.845 26.576 211.965 27.212 211.965 27.992V33.5H210.597V31.466H210.759C210.663 31.922 210.477 32.312 210.201 32.636C209.937 32.96 209.607 33.212 209.211 33.392C208.815 33.572 208.371 33.662 207.879 33.662ZM215.192 35.552L214.508 35.03C214.724 34.802 214.886 34.586 214.994 34.382C215.114 34.19 215.192 33.992 215.228 33.788C215.276 33.596 215.3 33.398 215.3 33.194L215.624 33.5H214.436V31.664H216.272V32.96C216.272 33.284 216.236 33.59 216.164 33.878C216.104 34.178 215.996 34.466 215.84 34.742C215.684 35.018 215.468 35.288 215.192 35.552ZM226.341 33.662C225.885 33.662 225.441 33.614 225.009 33.518C224.589 33.434 224.193 33.314 223.821 33.158C223.461 32.99 223.149 32.792 222.885 32.564L223.353 31.538C223.641 31.766 223.953 31.958 224.289 32.114C224.625 32.258 224.967 32.366 225.315 32.438C225.663 32.51 226.017 32.546 226.377 32.546C227.061 32.546 227.577 32.42 227.925 32.168C228.273 31.916 228.447 31.574 228.447 31.142C228.447 30.806 228.333 30.542 228.105 30.35C227.877 30.146 227.517 29.99 227.025 29.882L225.387 29.522C224.631 29.366 224.067 29.096 223.695 28.712C223.335 28.328 223.155 27.83 223.155 27.218C223.155 26.678 223.293 26.216 223.569 25.832C223.857 25.436 224.259 25.13 224.775 24.914C225.291 24.698 225.891 24.59 226.575 24.59C226.983 24.59 227.373 24.632 227.745 24.716C228.117 24.8 228.465 24.926 228.789 25.094C229.125 25.25 229.413 25.448 229.653 25.688L229.167 26.714C228.939 26.498 228.681 26.318 228.393 26.174C228.105 26.018 227.805 25.904 227.493 25.832C227.193 25.748 226.887 25.706 226.575 25.706C225.903 25.706 225.393 25.838 225.045 26.102C224.697 26.366 224.523 26.714 224.523 27.146C224.523 27.482 224.631 27.758 224.847 27.974C225.063 28.19 225.399 28.346 225.855 28.442L227.493 28.784C228.273 28.952 228.855 29.222 229.239 29.594C229.635 29.954 229.833 30.446 229.833 31.07C229.833 31.598 229.689 32.06 229.401 32.456C229.113 32.84 228.705 33.14 228.177 33.356C227.661 33.56 227.049 33.662 226.341 33.662ZM235.997 33.662C235.073 33.662 234.275 33.482 233.603 33.122C232.943 32.75 232.427 32.228 232.055 31.556C231.695 30.884 231.515 30.08 231.515 29.144C231.515 28.232 231.695 27.44 232.055 26.768C232.415 26.084 232.907 25.55 233.531 25.166C234.167 24.782 234.899 24.59 235.727 24.59C236.519 24.59 237.197 24.764 237.761 25.112C238.325 25.46 238.757 25.952 239.057 26.588C239.369 27.224 239.525 27.986 239.525 28.874V29.432H232.631V28.478H238.553L238.265 28.712C238.265 27.752 238.049 27.008 237.617 26.48C237.197 25.94 236.579 25.67 235.763 25.67C235.151 25.67 234.629 25.814 234.197 26.102C233.777 26.378 233.459 26.768 233.243 27.272C233.027 27.764 232.919 28.34 232.919 29V29.108C232.919 29.84 233.033 30.458 233.261 30.962C233.501 31.466 233.855 31.85 234.323 32.114C234.791 32.366 235.349 32.492 235.997 32.492C236.513 32.492 237.011 32.414 237.491 32.258C237.983 32.09 238.445 31.82 238.877 31.448L239.381 32.474C238.985 32.834 238.481 33.122 237.869 33.338C237.257 33.554 236.633 33.662 235.997 33.662ZM244.317 33.662C243.429 33.662 242.757 33.398 242.301 32.87C241.857 32.342 241.635 31.586 241.635 30.602V20.81H243.093V30.494C243.093 30.914 243.147 31.268 243.255 31.556C243.375 31.844 243.549 32.06 243.777 32.204C244.005 32.348 244.287 32.42 244.623 32.42C244.767 32.42 244.905 32.414 245.037 32.402C245.181 32.378 245.313 32.348 245.433 32.312L245.397 33.536C245.205 33.572 245.019 33.602 244.839 33.626C244.671 33.65 244.497 33.662 244.317 33.662ZM250.815 33.662C249.891 33.662 249.093 33.482 248.421 33.122C247.761 32.75 247.245 32.228 246.873 31.556C246.513 30.884 246.333 30.08 246.333 29.144C246.333 28.232 246.513 27.44 246.873 26.768C247.233 26.084 247.725 25.55 248.349 25.166C248.985 24.782 249.717 24.59 250.545 24.59C251.337 24.59 252.015 24.764 252.579 25.112C253.143 25.46 253.575 25.952 253.875 26.588C254.187 27.224 254.343 27.986 254.343 28.874V29.432H247.449V28.478H253.371L253.083 28.712C253.083 27.752 252.867 27.008 252.435 26.48C252.015 25.94 251.397 25.67 250.581 25.67C249.969 25.67 249.447 25.814 249.015 26.102C248.595 26.378 248.277 26.768 248.061 27.272C247.845 27.764 247.737 28.34 247.737 29V29.108C247.737 29.84 247.851 30.458 248.079 30.962C248.319 31.466 248.673 31.85 249.141 32.114C249.609 32.366 250.167 32.492 250.815 32.492C251.331 32.492 251.829 32.414 252.309 32.258C252.801 32.09 253.263 31.82 253.695 31.448L254.199 32.474C253.803 32.834 253.299 33.122 252.687 33.338C252.075 33.554 251.451 33.662 250.815 33.662ZM260.161 33.662C259.285 33.662 258.529 33.47 257.893 33.086C257.257 32.702 256.765 32.168 256.417 31.484C256.081 30.788 255.913 29.984 255.913 29.072C255.913 28.148 256.081 27.35 256.417 26.678C256.765 26.006 257.257 25.49 257.893 25.13C258.529 24.77 259.285 24.59 260.161 24.59C260.701 24.59 261.235 24.686 261.763 24.878C262.291 25.07 262.729 25.34 263.077 25.688L262.573 26.75C262.225 26.414 261.841 26.168 261.421 26.012C261.013 25.856 260.623 25.778 260.251 25.778C259.339 25.778 258.637 26.066 258.145 26.642C257.653 27.206 257.407 28.022 257.407 29.09C257.407 30.134 257.653 30.962 258.145 31.574C258.637 32.174 259.339 32.474 260.251 32.474C260.623 32.474 261.013 32.396 261.421 32.24C261.841 32.084 262.225 31.832 262.573 31.484L263.077 32.546C262.729 32.894 262.285 33.17 261.745 33.374C261.217 33.566 260.689 33.662 260.161 33.662ZM264.605 22.574V20.936H266.405V22.574H264.605ZM264.785 33.5V24.752H266.243V33.5H264.785ZM272.605 33.662C271.753 33.662 271.015 33.476 270.391 33.104C269.767 32.732 269.281 32.21 268.933 31.538C268.597 30.854 268.429 30.05 268.429 29.126C268.429 28.202 268.597 27.404 268.933 26.732C269.281 26.048 269.767 25.52 270.391 25.148C271.015 24.776 271.753 24.59 272.605 24.59C273.457 24.59 274.195 24.776 274.819 25.148C275.443 25.52 275.923 26.048 276.259 26.732C276.607 27.404 276.781 28.202 276.781 29.126C276.781 30.05 276.607 30.854 276.259 31.538C275.923 32.21 275.443 32.732 274.819 33.104C274.195 33.476 273.457 33.662 272.605 33.662ZM272.605 32.492C273.433 32.492 274.087 32.204 274.567 31.628C275.059 31.04 275.305 30.2 275.305 29.108C275.305 28.028 275.059 27.2 274.567 26.624C274.087 26.048 273.433 25.76 272.605 25.76C271.789 25.76 271.135 26.048 270.643 26.624C270.151 27.2 269.905 28.028 269.905 29.108C269.905 30.2 270.151 31.04 270.643 31.628C271.135 32.204 271.789 32.492 272.605 32.492ZM278.971 33.5V24.752H280.393V26.696H280.195C280.447 26 280.855 25.478 281.419 25.13C281.995 24.77 282.655 24.59 283.399 24.59C284.095 24.59 284.671 24.716 285.127 24.968C285.595 25.208 285.943 25.586 286.171 26.102C286.399 26.618 286.513 27.266 286.513 28.046V33.5H285.055V28.136C285.055 27.596 284.983 27.152 284.839 26.804C284.707 26.456 284.491 26.198 284.191 26.03C283.903 25.862 283.525 25.778 283.057 25.778C282.529 25.778 282.067 25.892 281.671 26.12C281.275 26.348 280.969 26.666 280.753 27.074C280.537 27.482 280.429 27.962 280.429 28.514V33.5H278.971ZM293.143 33.662C292.219 33.662 291.421 33.482 290.749 33.122C290.089 32.75 289.573 32.228 289.201 31.556C288.841 30.884 288.661 30.08 288.661 29.144C288.661 28.232 288.841 27.44 289.201 26.768C289.561 26.084 290.053 25.55 290.677 25.166C291.313 24.782 292.045 24.59 292.873 24.59C293.665 24.59 294.343 24.764 294.907 25.112C295.471 25.46 295.903 25.952 296.203 26.588C296.515 27.224 296.671 27.986 296.671 28.874V29.432H289.777V28.478H295.699L295.411 28.712C295.411 27.752 295.195 27.008 294.763 26.48C294.343 25.94 293.725 25.67 292.909 25.67C292.297 25.67 291.775 25.814 291.343 26.102C290.923 26.378 290.605 26.768 290.389 27.272C290.173 27.764 290.065 28.34 290.065 29V29.108C290.065 29.84 290.179 30.458 290.407 30.962C290.647 31.466 291.001 31.85 291.469 32.114C291.937 32.366 292.495 32.492 293.143 32.492C293.659 32.492 294.157 32.414 294.637 32.258C295.129 32.09 295.591 31.82 296.023 31.448L296.527 32.474C296.131 32.834 295.627 33.122 295.015 33.338C294.403 33.554 293.779 33.662 293.143 33.662ZM303.224 22.574V20.936H305.024V22.574H303.224ZM303.404 33.5V24.752H304.862V33.5H303.404ZM307.588 33.5V24.752H309.01V26.696H308.812C309.064 26 309.472 25.478 310.036 25.13C310.612 24.77 311.272 24.59 312.016 24.59C312.712 24.59 313.288 24.716 313.744 24.968C314.212 25.208 314.56 25.586 314.788 26.102C315.016 26.618 315.13 27.266 315.13 28.046V33.5H313.672V28.136C313.672 27.596 313.6 27.152 313.456 26.804C313.324 26.456 313.108 26.198 312.808 26.03C312.52 25.862 312.142 25.778 311.674 25.778C311.146 25.778 310.684 25.892 310.288 26.12C309.892 26.348 309.586 26.666 309.37 27.074C309.154 27.482 309.046 27.962 309.046 28.514V33.5H307.588ZM321.688 36.902C320.932 36.902 320.218 36.8 319.546 36.596C318.886 36.404 318.298 36.11 317.782 35.714L318.268 34.652C318.628 34.904 318.982 35.108 319.33 35.264C319.69 35.432 320.056 35.552 320.428 35.624C320.812 35.696 321.208 35.732 321.616 35.732C322.468 35.732 323.11 35.504 323.542 35.048C323.986 34.592 324.208 33.932 324.208 33.068V31.034H324.388C324.208 31.73 323.824 32.282 323.236 32.69C322.66 33.098 321.982 33.302 321.202 33.302C320.398 33.302 319.702 33.122 319.114 32.762C318.526 32.39 318.07 31.874 317.746 31.214C317.434 30.554 317.278 29.792 317.278 28.928C317.278 28.064 317.434 27.308 317.746 26.66C318.07 26 318.526 25.49 319.114 25.13C319.702 24.77 320.398 24.59 321.202 24.59C321.994 24.59 322.678 24.794 323.254 25.202C323.83 25.598 324.202 26.138 324.37 26.822H324.208V24.752H325.63V32.87C325.63 33.758 325.48 34.502 325.18 35.102C324.892 35.702 324.454 36.152 323.866 36.452C323.278 36.752 322.552 36.902 321.688 36.902ZM321.472 32.114C322.312 32.114 322.978 31.826 323.47 31.25C323.962 30.674 324.208 29.9 324.208 28.928C324.208 27.956 323.962 27.188 323.47 26.624C322.978 26.048 322.312 25.76 321.472 25.76C320.644 25.76 319.984 26.048 319.492 26.624C319 27.188 318.754 27.956 318.754 28.928C318.754 29.9 319 30.674 319.492 31.25C319.984 31.826 320.644 32.114 321.472 32.114ZM328.365 33.5V24.752H329.787V26.822H329.607C329.811 26.114 330.165 25.58 330.669 25.22C331.173 24.848 331.839 24.632 332.667 24.572L333.189 24.518L333.297 25.778L332.379 25.886C331.563 25.958 330.933 26.222 330.489 26.678C330.057 27.122 329.841 27.734 329.841 28.514V33.5H328.365ZM338.653 33.662C337.729 33.662 336.931 33.482 336.259 33.122C335.599 32.75 335.083 32.228 334.711 31.556C334.351 30.884 334.171 30.08 334.171 29.144C334.171 28.232 334.351 27.44 334.711 26.768C335.071 26.084 335.563 25.55 336.187 25.166C336.823 24.782 337.555 24.59 338.383 24.59C339.175 24.59 339.853 24.764 340.417 25.112C340.981 25.46 341.413 25.952 341.713 26.588C342.025 27.224 342.181 27.986 342.181 28.874V29.432H335.287V28.478H341.209L340.921 28.712C340.921 27.752 340.705 27.008 340.273 26.48C339.853 25.94 339.235 25.67 338.419 25.67C337.807 25.67 337.285 25.814 336.853 26.102C336.433 26.378 336.115 26.768 335.899 27.272C335.683 27.764 335.575 28.34 335.575 29V29.108C335.575 29.84 335.689 30.458 335.917 30.962C336.157 31.466 336.511 31.85 336.979 32.114C337.447 32.366 338.005 32.492 338.653 32.492C339.169 32.492 339.667 32.414 340.147 32.258C340.639 32.09 341.101 31.82 341.533 31.448L342.037 32.474C341.641 32.834 341.137 33.122 340.525 33.338C339.913 33.554 339.289 33.662 338.653 33.662ZM347.621 33.662C346.841 33.662 346.157 33.476 345.569 33.104C344.993 32.732 344.543 32.21 344.219 31.538C343.907 30.854 343.751 30.05 343.751 29.126C343.751 28.19 343.907 27.386 344.219 26.714C344.543 26.03 344.993 25.508 345.569 25.148C346.157 24.776 346.841 24.59 347.621 24.59C348.413 24.59 349.091 24.788 349.655 25.184C350.219 25.58 350.597 26.114 350.789 26.786H350.591V20.81H352.049V33.5H350.627V31.412H350.807C350.615 32.096 350.231 32.642 349.655 33.05C349.091 33.458 348.413 33.662 347.621 33.662ZM347.927 32.492C348.755 32.492 349.409 32.204 349.889 31.628C350.381 31.04 350.627 30.206 350.627 29.126C350.627 28.034 350.381 27.2 349.889 26.624C349.409 26.048 348.755 25.76 347.927 25.76C347.111 25.76 346.457 26.048 345.965 26.624C345.473 27.2 345.227 28.034 345.227 29.126C345.227 30.206 345.473 31.04 345.965 31.628C346.457 32.204 347.111 32.492 347.927 32.492ZM354.605 22.574V20.936H356.405V22.574H354.605ZM354.785 33.5V24.752H356.243V33.5H354.785ZM362.911 33.662C361.987 33.662 361.189 33.482 360.517 33.122C359.857 32.75 359.341 32.228 358.969 31.556C358.609 30.884 358.429 30.08 358.429 29.144C358.429 28.232 358.609 27.44 358.969 26.768C359.329 26.084 359.821 25.55 360.445 25.166C361.081 24.782 361.813 24.59 362.641 24.59C363.433 24.59 364.111 24.764 364.675 25.112C365.239 25.46 365.671 25.952 365.971 26.588C366.283 27.224 366.439 27.986 366.439 28.874V29.432H359.545V28.478H365.467L365.179 28.712C365.179 27.752 364.963 27.008 364.531 26.48C364.111 25.94 363.493 25.67 362.677 25.67C362.065 25.67 361.543 25.814 361.111 26.102C360.691 26.378 360.373 26.768 360.157 27.272C359.941 27.764 359.833 28.34 359.833 29V29.108C359.833 29.84 359.947 30.458 360.175 30.962C360.415 31.466 360.769 31.85 361.237 32.114C361.705 32.366 362.263 32.492 362.911 32.492C363.427 32.492 363.925 32.414 364.405 32.258C364.897 32.09 365.359 31.82 365.791 31.448L366.295 32.474C365.899 32.834 365.395 33.122 364.783 33.338C364.171 33.554 363.547 33.662 362.911 33.662ZM368.549 33.5V24.752H369.971V26.696H369.773C370.025 26 370.433 25.478 370.997 25.13C371.573 24.77 372.233 24.59 372.977 24.59C373.673 24.59 374.249 24.716 374.705 24.968C375.173 25.208 375.521 25.586 375.749 26.102C375.977 26.618 376.091 27.266 376.091 28.046V33.5H374.633V28.136C374.633 27.596 374.561 27.152 374.417 26.804C374.285 26.456 374.069 26.198 373.769 26.03C373.481 25.862 373.103 25.778 372.635 25.778C372.107 25.778 371.645 25.892 371.249 26.12C370.853 26.348 370.547 26.666 370.331 27.074C370.115 27.482 370.007 27.962 370.007 28.514V33.5H368.549ZM382.289 33.662C381.257 33.662 380.483 33.386 379.967 32.834C379.451 32.282 379.193 31.496 379.193 30.476V25.886H377.483V24.752H379.193V22.07H380.651V24.752H383.423V25.886H380.651V30.332C380.651 31.016 380.795 31.538 381.083 31.898C381.371 32.246 381.839 32.42 382.487 32.42C382.679 32.42 382.871 32.396 383.063 32.348C383.255 32.3 383.429 32.252 383.585 32.204L383.837 33.32C383.681 33.404 383.453 33.482 383.153 33.554C382.853 33.626 382.565 33.662 382.289 33.662ZM388.926 33.662C388.002 33.662 387.204 33.482 386.532 33.122C385.872 32.75 385.356 32.228 384.984 31.556C384.624 30.884 384.444 30.08 384.444 29.144C384.444 28.232 384.624 27.44 384.984 26.768C385.344 26.084 385.836 25.55 386.46 25.166C387.096 24.782 387.828 24.59 388.656 24.59C389.448 24.59 390.126 24.764 390.69 25.112C391.254 25.46 391.686 25.952 391.986 26.588C392.298 27.224 392.454 27.986 392.454 28.874V29.432H385.56V28.478H391.482L391.194 28.712C391.194 27.752 390.978 27.008 390.546 26.48C390.126 25.94 389.508 25.67 388.692 25.67C388.08 25.67 387.558 25.814 387.126 26.102C386.706 26.378 386.388 26.768 386.172 27.272C385.956 27.764 385.848 28.34 385.848 29V29.108C385.848 29.84 385.962 30.458 386.19 30.962C386.43 31.466 386.784 31.85 387.252 32.114C387.72 32.366 388.278 32.492 388.926 32.492C389.442 32.492 389.94 32.414 390.42 32.258C390.912 32.09 391.374 31.82 391.806 31.448L392.31 32.474C391.914 32.834 391.41 33.122 390.798 33.338C390.186 33.554 389.562 33.662 388.926 33.662ZM397.516 33.662C397.06 33.662 396.616 33.614 396.184 33.518C395.764 33.434 395.368 33.314 394.996 33.158C394.636 32.99 394.324 32.792 394.06 32.564L394.528 31.538C394.816 31.766 395.128 31.958 395.464 32.114C395.8 32.258 396.142 32.366 396.49 32.438C396.838 32.51 397.192 32.546 397.552 32.546C398.236 32.546 398.752 32.42 399.1 32.168C399.448 31.916 399.622 31.574 399.622 31.142C399.622 30.806 399.508 30.542 399.28 30.35C399.052 30.146 398.692 29.99 398.2 29.882L396.562 29.522C395.806 29.366 395.242 29.096 394.87 28.712C394.51 28.328 394.33 27.83 394.33 27.218C394.33 26.678 394.468 26.216 394.744 25.832C395.032 25.436 395.434 25.13 395.95 24.914C396.466 24.698 397.066 24.59 397.75 24.59C398.158 24.59 398.548 24.632 398.92 24.716C399.292 24.8 399.64 24.926 399.964 25.094C400.3 25.25 400.588 25.448 400.828 25.688L400.342 26.714C400.114 26.498 399.856 26.318 399.568 26.174C399.28 26.018 398.98 25.904 398.668 25.832C398.368 25.748 398.062 25.706 397.75 25.706C397.078 25.706 396.568 25.838 396.22 26.102C395.872 26.366 395.698 26.714 395.698 27.146C395.698 27.482 395.806 27.758 396.022 27.974C396.238 28.19 396.574 28.346 397.03 28.442L398.668 28.784C399.448 28.952 400.03 29.222 400.414 29.594C400.81 29.954 401.008 30.446 401.008 31.07C401.008 31.598 400.864 32.06 400.576 32.456C400.288 32.84 399.88 33.14 399.352 33.356C398.836 33.56 398.224 33.662 397.516 33.662ZM407.853 36.74V24.752H409.275V26.822H409.095C409.287 26.138 409.665 25.598 410.229 25.202C410.805 24.794 411.489 24.59 412.281 24.59C413.061 24.59 413.739 24.776 414.315 25.148C414.903 25.508 415.353 26.03 415.665 26.714C415.989 27.386 416.151 28.19 416.151 29.126C416.151 30.05 415.989 30.854 415.665 31.538C415.353 32.21 414.909 32.732 414.333 33.104C413.757 33.476 413.073 33.662 412.281 33.662C411.489 33.662 410.811 33.464 410.247 33.068C409.683 32.66 409.299 32.12 409.095 31.448H409.311V36.74H407.853ZM411.975 32.492C412.803 32.492 413.457 32.204 413.937 31.628C414.429 31.04 414.675 30.206 414.675 29.126C414.675 28.034 414.429 27.2 413.937 26.624C413.457 26.048 412.803 25.76 411.975 25.76C411.159 25.76 410.505 26.048 410.013 26.624C409.521 27.2 409.275 28.034 409.275 29.126C409.275 30.206 409.521 31.04 410.013 31.628C410.505 32.204 411.159 32.492 411.975 32.492ZM421.101 33.662C420.501 33.662 419.961 33.548 419.481 33.32C419.013 33.08 418.641 32.756 418.365 32.348C418.089 31.94 417.951 31.484 417.951 30.98C417.951 30.332 418.113 29.822 418.437 29.45C418.773 29.078 419.319 28.814 420.075 28.658C420.843 28.502 421.887 28.424 423.207 28.424H424.017V29.378H423.225C422.493 29.378 421.881 29.402 421.389 29.45C420.897 29.498 420.507 29.582 420.219 29.702C419.931 29.822 419.727 29.978 419.607 30.17C419.487 30.362 419.427 30.602 419.427 30.89C419.427 31.382 419.595 31.784 419.931 32.096C420.279 32.408 420.747 32.564 421.335 32.564C421.815 32.564 422.235 32.45 422.595 32.222C422.967 31.994 423.255 31.682 423.459 31.286C423.675 30.89 423.783 30.434 423.783 29.918V27.866C423.783 27.122 423.633 26.588 423.333 26.264C423.033 25.928 422.541 25.76 421.857 25.76C421.329 25.76 420.819 25.838 420.327 25.994C419.835 26.138 419.331 26.378 418.815 26.714L418.311 25.652C418.623 25.436 418.977 25.25 419.373 25.094C419.769 24.926 420.183 24.8 420.615 24.716C421.047 24.632 421.461 24.59 421.857 24.59C422.613 24.59 423.237 24.716 423.729 24.968C424.221 25.208 424.587 25.58 424.827 26.084C425.067 26.576 425.187 27.212 425.187 27.992V33.5H423.819V31.466H423.981C423.885 31.922 423.699 32.312 423.423 32.636C423.159 32.96 422.829 33.212 422.433 33.392C422.037 33.572 421.593 33.662 421.101 33.662ZM427.892 33.5V24.752H429.314V26.822H429.134C429.338 26.114 429.692 25.58 430.196 25.22C430.7 24.848 431.366 24.632 432.194 24.572L432.716 24.518L432.824 25.778L431.906 25.886C431.09 25.958 430.46 26.222 430.016 26.678C429.584 27.122 429.368 27.734 429.368 28.514V33.5H427.892ZM437.01 33.662C436.41 33.662 435.87 33.548 435.39 33.32C434.922 33.08 434.55 32.756 434.274 32.348C433.998 31.94 433.86 31.484 433.86 30.98C433.86 30.332 434.022 29.822 434.346 29.45C434.682 29.078 435.228 28.814 435.984 28.658C436.752 28.502 437.796 28.424 439.116 28.424H439.926V29.378H439.134C438.402 29.378 437.79 29.402 437.298 29.45C436.806 29.498 436.416 29.582 436.128 29.702C435.84 29.822 435.636 29.978 435.516 30.17C435.396 30.362 435.336 30.602 435.336 30.89C435.336 31.382 435.504 31.784 435.84 32.096C436.188 32.408 436.656 32.564 437.244 32.564C437.724 32.564 438.144 32.45 438.504 32.222C438.876 31.994 439.164 31.682 439.368 31.286C439.584 30.89 439.692 30.434 439.692 29.918V27.866C439.692 27.122 439.542 26.588 439.242 26.264C438.942 25.928 438.45 25.76 437.766 25.76C437.238 25.76 436.728 25.838 436.236 25.994C435.744 26.138 435.24 26.378 434.724 26.714L434.22 25.652C434.532 25.436 434.886 25.25 435.282 25.094C435.678 24.926 436.092 24.8 436.524 24.716C436.956 24.632 437.37 24.59 437.766 24.59C438.522 24.59 439.146 24.716 439.638 24.968C440.13 25.208 440.496 25.58 440.736 26.084C440.976 26.576 441.096 27.212 441.096 27.992V33.5H439.728V31.466H439.89C439.794 31.922 439.608 32.312 439.332 32.636C439.068 32.96 438.738 33.212 438.342 33.392C437.946 33.572 437.502 33.662 437.01 33.662ZM448.244 22.574V20.936H450.044V22.574H448.244ZM448.424 33.5V24.752H449.882V33.5H448.424ZM452.607 33.5V24.752H454.029V26.696H453.831C454.083 26 454.491 25.478 455.055 25.13C455.631 24.77 456.291 24.59 457.035 24.59C457.731 24.59 458.307 24.716 458.763 24.968C459.231 25.208 459.579 25.586 459.807 26.102C460.035 26.618 460.149 27.266 460.149 28.046V33.5H458.691V28.136C458.691 27.596 458.619 27.152 458.475 26.804C458.343 26.456 458.127 26.198 457.827 26.03C457.539 25.862 457.161 25.778 456.693 25.778C456.165 25.778 455.703 25.892 455.307 26.12C454.911 26.348 454.605 26.666 454.389 27.074C454.173 27.482 454.065 27.962 454.065 28.514V33.5H452.607ZM462.658 22.574V20.936H464.458V22.574H462.658ZM462.838 33.5V24.752H464.296V33.5H462.838ZM470.729 33.662C469.853 33.662 469.097 33.47 468.461 33.086C467.825 32.702 467.333 32.168 466.985 31.484C466.649 30.788 466.481 29.984 466.481 29.072C466.481 28.148 466.649 27.35 466.985 26.678C467.333 26.006 467.825 25.49 468.461 25.13C469.097 24.77 469.853 24.59 470.729 24.59C471.269 24.59 471.803 24.686 472.331 24.878C472.859 25.07 473.297 25.34 473.645 25.688L473.141 26.75C472.793 26.414 472.409 26.168 471.989 26.012C471.581 25.856 471.191 25.778 470.819 25.778C469.907 25.778 469.205 26.066 468.713 26.642C468.221 27.206 467.975 28.022 467.975 29.09C467.975 30.134 468.221 30.962 468.713 31.574C469.205 32.174 469.907 32.474 470.819 32.474C471.191 32.474 471.581 32.396 471.989 32.24C472.409 32.084 472.793 31.832 473.141 31.484L473.645 32.546C473.297 32.894 472.853 33.17 472.313 33.374C471.785 33.566 471.257 33.662 470.729 33.662ZM475.173 22.574V20.936H476.973V22.574H475.173ZM475.353 33.5V24.752H476.811V33.5H475.353ZM482.291 33.662C481.691 33.662 481.151 33.548 480.671 33.32C480.203 33.08 479.831 32.756 479.555 32.348C479.279 31.94 479.141 31.484 479.141 30.98C479.141 30.332 479.303 29.822 479.627 29.45C479.963 29.078 480.509 28.814 481.265 28.658C482.033 28.502 483.077 28.424 484.397 28.424H485.207V29.378H484.415C483.683 29.378 483.071 29.402 482.579 29.45C482.087 29.498 481.697 29.582 481.409 29.702C481.121 29.822 480.917 29.978 480.797 30.17C480.677 30.362 480.617 30.602 480.617 30.89C480.617 31.382 480.785 31.784 481.121 32.096C481.469 32.408 481.937 32.564 482.525 32.564C483.005 32.564 483.425 32.45 483.785 32.222C484.157 31.994 484.445 31.682 484.649 31.286C484.865 30.89 484.973 30.434 484.973 29.918V27.866C484.973 27.122 484.823 26.588 484.523 26.264C484.223 25.928 483.731 25.76 483.047 25.76C482.519 25.76 482.009 25.838 481.517 25.994C481.025 26.138 480.521 26.378 480.005 26.714L479.501 25.652C479.813 25.436 480.167 25.25 480.563 25.094C480.959 24.926 481.373 24.8 481.805 24.716C482.237 24.632 482.651 24.59 483.047 24.59C483.803 24.59 484.427 24.716 484.919 24.968C485.411 25.208 485.777 25.58 486.017 26.084C486.257 26.576 486.377 27.212 486.377 27.992V33.5H485.009V31.466H485.171C485.075 31.922 484.889 32.312 484.613 32.636C484.349 32.96 484.019 33.212 483.623 33.392C483.227 33.572 482.783 33.662 482.291 33.662ZM489.082 33.5V24.752H490.504V26.822H490.324C490.528 26.114 490.882 25.58 491.386 25.22C491.89 24.848 492.556 24.632 493.384 24.572L493.906 24.518L494.014 25.778L493.096 25.886C492.28 25.958 491.65 26.222 491.206 26.678C490.774 27.122 490.558 27.734 490.558 28.514V33.5H489.082ZM494.93 33.5V31.664H496.766V33.5H494.93Z" fill="#F0633C"/>
</svg>
